REM DIRINDEX 1\2,1\3,1\4,1\5,1\6
REM DIRNAME folder01,folder02,folder03,folder04,folder05,folder06
TITLE ""
FILE "Disc2Track02.mp3" MP3
  TRACK 01 AUDIO
    TITLE "3:cjc030_02061"
    INDEX 01 00:00:00
  TRACK 02 AUDIO
    TITLE "0:"
    INDEX 01 00:01:17
  TRACK 03 AUDIO
    TITLE "4:cjc030_02062"
    INDEX 01 00:01:24
  TRACK 04 AUDIO
    TITLE "0:"
    INDEX 01 00:02:45
  TRACK 05 AUDIO
    TITLE "5:cjc030_02063"
    INDEX 01 00:02:55
  TRACK 06 AUDIO
    TITLE "0:"
    INDEX 01 00:04:01
  TRACK 07 AUDIO
    TITLE "6:cjc030_02064"
    INDEX 01 00:04:15
  TRACK 08 AUDIO
    TITLE "0:"
    INDEX 01 00:09:10
  TRACK 09 AUDIO
    TITLE "3:cjc030_02065"
    INDEX 01 00:09:57
  TRACK 10 AUDIO
    TITLE "0:"
    INDEX 01 00:11:07
  TRACK 11 AUDIO
    TITLE "4:cjc030_02066"
    INDEX 01 00:11:15
  TRACK 12 AUDIO
    TITLE "0:"
    INDEX 01 00:12:03
  TRACK 13 AUDIO
    TITLE "5:cjc030_02067"
    INDEX 01 00:12:16
  TRACK 14 AUDIO
    TITLE "0:"
    INDEX 01 00:13:37
  TRACK 15 AUDIO
    TITLE "3:cjc030_02068"
    INDEX 01 00:14:19
  TRACK 16 AUDIO
    TITLE "0:"
    INDEX 01 00:15:30
  TRACK 17 AUDIO
    TITLE "4:cjc030_02069"
    INDEX 01 00:15:42
  TRACK 18 AUDIO
    TITLE "0:"
    INDEX 01 00:17:69
  TRACK 19 AUDIO
    TITLE "5:cjc030_02070"
    INDEX 01 00:18:01
  TRACK 20 AUDIO
    TITLE "0:"
    INDEX 01 00:19:16
  TRACK 21 AUDIO
    TITLE "6:cjc030_02071"
    INDEX 01 00:19:26
  TRACK 22 AUDIO
    TITLE "0:"
    INDEX 01 00:21:04
  TRACK 23 AUDIO
    TITLE "6:cjc030_02072"
    INDEX 01 00:21:37
  TRACK 24 AUDIO
    TITLE "0:"
    INDEX 01 00:24:33
  TRACK 25 AUDIO
    TITLE "3:cjc030_02073"
    INDEX 01 00:25:05
  TRACK 26 AUDIO
    TITLE "0:"
    INDEX 01 00:26:36
  TRACK 27 AUDIO
    TITLE "4:cjc030_02074"
    INDEX 01 00:26:46
  TRACK 28 AUDIO
    TITLE "0:"
    INDEX 01 00:27:53
  TRACK 29 AUDIO
    TITLE "5:cjc030_02075"
    INDEX 01 00:27:63
  TRACK 30 AUDIO
    TITLE "0:"
    INDEX 01 00:29:21
  TRACK 31 AUDIO
    TITLE "3:cjc030_02076"
    INDEX 01 00:29:72
  TRACK 32 AUDIO
    TITLE "0:"
    INDEX 01 00:31:14
  TRACK 33 AUDIO
    TITLE "4:cjc030_02077"
    INDEX 01 00:31:24
  TRACK 34 AUDIO
    TITLE "0:"
    INDEX 01 00:33:34
  TRACK 35 AUDIO
    TITLE "5:cjc030_02078"
    INDEX 01 00:33:42
  TRACK 36 AUDIO
    TITLE "0:"
    INDEX 01 00:34:57
  TRACK 37 AUDIO
    TITLE "6:cjc030_02079"
    INDEX 01 00:34:71
  TRACK 38 AUDIO
    TITLE "0:"
    INDEX 01 00:39:21
  TRACK 39 AUDIO
    TITLE "3:cjc030_02080"
    INDEX 01 00:39:68
  TRACK 40 AUDIO
    TITLE "0:"
    INDEX 01 00:41:08
  TRACK 41 AUDIO
    TITLE "4:cjc030_02081"
    INDEX 01 00:41:16
  TRACK 42 AUDIO
    TITLE "0:"
    INDEX 01 00:42:04
  TRACK 43 AUDIO
    TITLE "5:cjc030_02082"
    INDEX 01 00:42:12
  TRACK 44 AUDIO
    TITLE "0:"
    INDEX 01 00:43:27
  TRACK 45 AUDIO
    TITLE "6:cjc030_02083"
    INDEX 01 00:43:40
  TRACK 46 AUDIO
    TITLE "0:"
    INDEX 01 00:47:09
  TRACK 47 AUDIO
    TITLE "3:cjc030_02084"
    INDEX 01 00:47:58
  TRACK 48 AUDIO
    TITLE "0:"
    INDEX 01 00:49:00
  TRACK 49 AUDIO
    TITLE "4:cjc030_02085"
    INDEX 01 00:49:12
  TRACK 50 AUDIO
    TITLE "0:"
    INDEX 01 00:51:42
  TRACK 51 AUDIO
    TITLE "5:cjc030_02086"
    INDEX 01 00:51:52
  TRACK 52 AUDIO
    TITLE "0:"
    INDEX 01 00:52:69
  TRACK 53 AUDIO
    TITLE "3:cjc030_02087"
    INDEX 01 00:53:49
  TRACK 54 AUDIO
    TITLE "0:"
    INDEX 01 00:54:64
  TRACK 55 AUDIO
    TITLE "4:cjc030_02088"
    INDEX 01 00:54:72
  TRACK 56 AUDIO
    TITLE "0:"
    INDEX 01 00:59:06
  TRACK 57 AUDIO
    TITLE "5:cjc030_02089"
    INDEX 01 00:59:18
  TRACK 58 AUDIO
    TITLE "0:"
    INDEX 01 01:00:31
  TRACK 59 AUDIO
    TITLE "6:cjc030_02090"
    INDEX 01 01:00:43
  TRACK 60 AUDIO
    TITLE "0:"
    INDEX 01 01:05:13
  TRACK 61 AUDIO
    TITLE "3:cjc030_02091"
    INDEX 01 01:05:60
  TRACK 62 AUDIO
    TITLE "0:"
    INDEX 01 01:07:04
  TRACK 63 AUDIO
    TITLE "4:cjc030_02092"
    INDEX 01 01:07:14
  TRACK 64 AUDIO
    TITLE "0:"
    INDEX 01 01:08:17
  TRACK 65 AUDIO
    TITLE "5:cjc030_02093"
    INDEX 01 01:08:27
  TRACK 66 AUDIO
    TITLE "0:"
    INDEX 01 01:09:46
